# xmcd
#
# Track frame offsets:
#	150
#	13420
#	26602
#	37420
#	52475
#	66772
#	76630
#	89652
#	104097
#	115207
#
# Disc length: 1754 seconds
#
# Revision: 1
# Processed by: cddbd v1.5.2PL0 Copyright (c) Steve Scherf et al.
# Submitted via: audiograbber 1.83.01
#
DISCID=9206d80a
DTITLE=Barbara Mandrell - The Best Of Barbara Mandrell
DYEAR=1992
DGENRE=Country
TTITLE0=Feed The Fire
TTITLE1=The Nearness Of You
TTITLE2=I'll Be Your Jukebox Tonight
TTITLE3=When A Man Loves A Woman
TTITLE4=You've Become The Dream
TTITLE5=The Key's In The Mailbox
TTITLE6=I Wish That I Could Fall In Love Today
TTITLE7=I Love You Because
TTITLE8=Tall Drink Of Water
TTITLE9=I'll Leave Something Good Behind
EXTD=
EXTT0=
EXTT1=
EXTT2=
EXTT3=
EXTT4=
EXTT5=
EXTT6=
EXTT7=
EXTT8=
EXTT9=
PLAYORDER=
